<svg xmlns="http://www.w3.org/2000/svg" viewBox="0 0 807.38 1058.08"><defs><style>.cls-1{fill:#181818;}</style></defs><g id="Layer_2" data-name="Layer 2"><g id="Layer_1-2" data-name="Layer 1"><path class="cls-1" d="M424.5,0c11.67,2.58,23.56,4.46,35,7.86,70.22,20.85,117.64,66.07,142.38,134.93,2,5.71,4.58,8.77,10.58,10.81,25.53,8.68,41.7,32.38,41.44,59.28-.26,26.56-17.4,49.28-43.19,58.22-3.92,1.36-8.74,4.69-10.08,8.25-14.77,39.44-38.73,71.83-72.31,97.17a24.25,24.25,0,0,0-2.39,2.48c118.24,35.36,167.83,117.19,160.54,238.67H699c14.8,0,29.61-.11,44.41,0,36.94.31,63.31,25.92,63.68,62.85.46,46.13.13,92.26.14,138.39q0,85.73,0,171.45c-.07,42.13-25.41,67.26-67.63,67.29-34.42,0-68.85.15-103.28-.11-12.39-.09-21.42-9.23-21.44-20.53s9.05-20,21.41-20.63c2.41-.11,4.82,0,7.23,0q48,0,96.05,0c19.33,0,26.34-6.79,26.35-25.9q.08-152.85,0-305.71c0-18.67-7-25.74-25.48-25.74q-336.69,0-673.38,0c-17.95,0-25.29,7.12-25.3,24.87q-.1,153.89,0,307.77c0,17.64,7.43,24.7,25.45,24.71q185.9,0,371.81,0c19.12,0,28.62,6.71,28.83,20.32.21,13.93-9.6,21-29.22,21-123.24,0-246.5-.67-369.74.41-37.52.33-69.39-26.26-68.88-68.92q1.83-151.29,0-302.6C-.53,643.73,31,615,69.58,617.48c16.71,1.09,33.55.19,52.84.19,0-21.14-1.75-41.5.31-61.47,8.74-85,69.17-153.47,152.17-174.08,2.29-.57,4.52-1.37,5.73-1.74C266.15,365.07,250,350.92,237.57,334c-11.89-16.13-19.72-35.21-29.79-52.74-2.27-3.93-5.87-8.44-9.85-9.84-26.7-9.36-43.88-31.64-44.14-58.58-.27-27.35,16.18-50.17,42.26-60.06,3.91-1.49,7.84-6.1,9.39-10.16,30.34-80,87.4-127.17,172-140.87A40.25,40.25,0,0,0,383.18,0Zm108,617.09c0-6.71,0-12.84,0-19,.1-13.76-.44-27.57.58-41.27.86-11.6,10-18.61,21.11-18.2,10.64.38,18.44,7.88,19.37,19,.4,4.79.23,9.63.24,14.44,0,15,0,30,0,44.74h71.52c0-13.58.11-26.3,0-39-.83-89.66-71.67-159.92-161.51-160.1-53.36-.11-106.72-.35-160.07.21A168.5,168.5,0,0,0,283,423c-78.42,20.73-132.39,90.59-119.5,194h70.34c0-4.78,0-8.85,0-12.91,0-15.49-.06-31,.25-46.47.18-8.89,5.26-15.07,13.34-17.84S264,537.89,269,545.1a35.49,35.49,0,0,1,5.89,18c.76,17.78.27,35.63.27,54ZM403.45,376.23c74.31.09,139.52-47.52,160.17-118.12,4.82-16.46,11.31-27.05,30.7-26.22,11.06.47,18.69-10,18.2-21-.47-10.48-8.21-18.53-19.17-19.21a54,54,0,0,0-14.35,1c-45.06,9.43-87.52,2.55-127.37-20.26-5.59-3.2-10.16-3.86-16.28-1.14-63.18,28-128.94,34.66-196.83,23.26-7.43-1.25-14.94-2.83-22.42-2.87-12.63-.06-21.12,8.81-21,20.56.16,11.19,8.66,19.57,20.56,20.26,18.43,1.07,21.88,3.88,27,22A166.44,166.44,0,0,0,403.45,376.23ZM247.17,153.61a21,21,0,0,0,3.63,1.15c58.48,8,115.31,3,169.45-22.07,17.36-8,33.38-6.6,50.14,2.66,12.5,6.91,26.19,12.12,39.9,16.24,16.43,4.93,33.48,4.93,50.7,2.15-15.18-53.28-76.92-115.91-165.24-112.3C329.46,44.15,256.17,98.94,247.17,153.61Z"/><path class="cls-1" d="M618,837.62l-62.54-65c-2.86-3-5.91-5.79-8.56-8.94-7.61-9-7.2-21.14.8-28.86s19.76-7.66,28.79.37c1,.92,2,1.92,2.94,2.91Q619.22,779.26,659,820.5c11.35,11.84,11.41,22.45.08,34.27q-40,41.73-80.33,83.16c-10,10.26-22.2,11.14-31,2.74-9.06-8.66-8.42-21.15,1.87-31.87q30-31.29,60.18-62.45C612.4,843.66,614.92,840.89,618,837.62Z"/><path class="cls-1" d="M189.65,837.66c19.71,20.51,39,40.55,58.25,60.6,4.53,4.71,9.33,9.21,13.45,14.26,7.12,8.69,6.37,20.61-1.3,28.05s-20,8.33-27.94.27q-43.8-44.52-86.72-89.89c-7.59-8-7.27-19,.47-27.18q42.66-44.91,86.07-89.08c8.24-8.37,20.89-7.46,28.67.65,7.61,7.93,7.86,20.13-.4,28.89-19.82,21-40,41.69-60.1,62.5C196.78,830.17,193.49,833.64,189.65,837.66Z"/><path class="cls-1" d="M476.68,752c-.94,2.28-2.13,7-4.6,10.94q-54,85.9-108.44,171.59c-7.6,12-19.69,15.23-29.89,8.63s-12.37-18.83-4.85-30.76Q383,826.55,437.35,740.83c6.62-10.44,15.73-14.24,25.27-10.79C471.58,733.28,476.47,739.8,476.68,752Z"/><path class="cls-1" d="M561.58,1037.38a20.39,20.39,0,1,1-19.75-20.94A20.43,20.43,0,0,1,561.58,1037.38Z"/><path class="cls-1" d="M405.82,337.69c-18.9.1-36.85-3.8-53.49-13-11.41-6.3-15.46-17.21-10.45-27.64,5.19-10.79,17.06-15,28.85-9.13,22.25,11,44.07,11,66.33,0,11.77-5.85,23.68-1.55,28.78,9.27,4.93,10.44,1.22,22.5-10.71,27.35-15.69,6.37-32.23,10.69-48.4,15.89C406.42,339.51,406.12,338.6,405.82,337.69Z"/><path class="cls-1" d="M468,252.41a20.29,20.29,0,0,1-20.71-20,20.6,20.6,0,1,1,41.19-.23A20.28,20.28,0,0,1,468,252.41Z"/><path class="cls-1" d="M340.62,252.42a20.47,20.47,0,0,1-21.18-19.56c-.51-11.32,9.17-21.38,20.61-21.41a20.65,20.65,0,0,1,20.49,20.33A20.1,20.1,0,0,1,340.62,252.42Z"/></g></g></svg>