<svg xmlns="http://www.w3.org/2000/svg" viewBox="0 0 1058.14 1057.95"><defs><style>.cls-1{fill:#f9d801;}</style></defs><g id="Layer_2" data-name="Layer 2"><g id="Layer_1-2" data-name="Layer 1"><path class="cls-1" d="M1058.14,309.88c-25.83,26.16-51.52,52.47-77.59,78.4-6.92,6.88-16.06,6.67-23.15-.25q-36.58-35.7-72.58-72c-7.15-7.23-6.6-16.35.51-24,6.3-6.78,12.92-13.25,19.4-19.87C756.21,158.08,535.29,153.28,380.06,263.9c16.16,38.51,12.69,74.43-19.37,103.35C332.16,393,299,394.78,264.53,379.37c-106,143.48-112,368.67,8.81,526.24,6.18-6.79,11.89-13.71,18.29-19.93,8.67-8.41,17.69-8.36,26.33.25q34.77,34.62,69.09,69.68c8.66,8.85,8.67,17.49.05,26.22q-34.49,34.89-69.42,69.35c-9,8.88-17.31,9.07-26.17.33q-35.33-34.8-70.11-70.13c-8.34-8.47-8.27-16.9.08-25.38,8.68-8.82,18-17,26.75-25.26C141.86,778.13,122.55,616.7,187,443c-7.55,8.31-14.82,16.9-22.7,24.88C144.43,488,124.54,508,104.18,527.58c-5.7,5.48-6.89,10.08-4.71,17.77,7.6,26.88-9.12,54.92-35.87,61.69-27.69,7-54.94-9.3-62.06-37.13-6.75-26.34,9.35-54.58,36.11-60.58,9.29-2.09,19.59.51,29.43.61,3.3,0,7.8.17,9.74-1.77C129,456.2,181,404,233.49,351.26c-12-20.15-17.27-42.09-11.74-65.75a84.36,84.36,0,0,1,24.84-43.2c27.91-26.19,62.82-29.34,105.51-9.26,1.87-1.72,3.94-3.47,5.85-5.39Q432.07,153.5,506,79.15c2.72-2.74,5.09-8.38,4.18-11.75C502,37,514.67,12.07,544.13,1.8A30.87,30.87,0,0,0,547.78,0h20.66a17,17,0,0,0,2.67,1.53c29.39,10.36,43.74,36.41,35.35,63.75-9,29.41-41.33,42.19-65.22,33.2-2.83-1.06-8.37,1.42-11,4-27.06,26.45-53.79,53.24-80.57,80-1.72,1.72-3.16,3.73-5.15,6.11Q703.8,89,929.64,246.89a4.31,4.31,0,0,0,1-.54c8.1-7.94,16.14-15.95,24.31-23.82,10.27-9.87,18.23-9.91,28.46.19q26.43,26.11,52.53,52.56c7.68,7.81,14.82,16.16,22.21,24.27Zm-702-5.07a51.71,51.71,0,0,0-51.29-52.38c-28.22-.13-52.07,23.66-52.08,51.95a51.75,51.75,0,0,0,51.12,51.55A51,51,0,0,0,356.12,304.81ZM305,921.52l-46.49,47.11,46.2,46.45,47-46.77Zm664.15-571,46.38-46.69L969.25,257.6l-46.32,46.29ZM558,68.15a17.53,17.53,0,1,0,0-35.05,17.53,17.53,0,0,0,0,35.05ZM68.39,557.92a17.07,17.07,0,0,0-16.81-17.31C41.8,540.3,35,546.56,34.8,556.15A17.28,17.28,0,0,0,52,574.2,16,16,0,0,0,68.39,557.92Z"/><path class="cls-1" d="M1058.14,789.16c-3.28,4-6.28,8.2-9.9,11.82q-123,123.14-246.11,246.15c-1.22,1.21-2.41,2.45-3.67,3.63-11.64,10.92-22.59,9.26-29.79-5-16.47-32.51-32.48-65.25-49.24-97.6a25.37,25.37,0,0,0-12.11-11.09q-82.07-32.18-164.53-63.31c-8.95-3.4-14.76-8.4-18.44-17.67Q441.44,647.78,357.8,439.72c-4.63-11.52-3.1-19.93,6-28.51,17-16,33.4-32.81,49.73-49.59,7.22-7.42,14.67-8.66,24.21-4.84q210.12,84.15,420.41,167.87c8.57,3.41,12.83,9.39,15.92,17.52,20.66,54.28,41.64,108.44,62.23,162.74,2.72,7.18,6.57,12,13.68,15.39q46.89,22.69,93.19,46.57c5.56,2.86,10,7.92,15,12Zm-659-365.46c-6.39,3.86-9.2,7.83-5.95,15.9q79.5,197.46,158.65,395a21.26,21.26,0,0,0,10.67,10.75c50.83,20,101.92,39.41,152.8,59.33,6.55,2.56,10.31,1.26,15.08-3.54q85.17-85.7,170.89-170.84c5.65-5.6,6-10,3.28-16.93Q875.81,640,847.94,566.23c-3.17-8.44-7.65-13.31-16.08-16.67Q636.43,471.86,441.3,393.39c-8.49-3.42-13.51-2.17-16.82,4.77L637.11,610.78c55.88-34.1,109.49-9.32,133,22.93,28,38.34,25,90.49-7.74,125.1-32.29,34.12-85.38,39.9-124.6,13.57-44-29.57-53-76.62-26.44-136.51ZM932.63,748.62,748.75,932.22l39.73,79.29,223.28-223.23Zm-240.28-121c-36-.09-64.35,28-64.44,63.81A64.18,64.18,0,0,0,692,755.94c35.24-.07,64.43-29.43,64.22-64.63A64.16,64.16,0,0,0,692.35,627.67Z"/></g></g></svg>